<?xml version="1.0" encoding="UTF-8" standalone="no"?>
<!-- Created with Inkscape (http://www.inkscape.org/) -->

<svg
   xmlns:dc="http://purl.org/dc/elements/1.1/"
   xmlns:cc="http://creativecommons.org/ns#"
   xmlns:rdf="http://www.w3.org/1999/02/22-rdf-syntax-ns#"
   xmlns:svg="http://www.w3.org/2000/svg"
   xmlns="http://www.w3.org/2000/svg"
   xmlns:sodipodi="http://sodipodi.sourceforge.net/DTD/sodipodi-0.dtd"
   xmlns:inkscape="http://www.inkscape.org/namespaces/inkscape"
   id="svg2"
   version="1.1"
   inkscape:version="0.47 r22583"
   width="394.01337"
   height="378.371"
   sodipodi:docname="reveal_button.svg"
   inkscape:export-filename="/home/askory/eclipse-workspace/MineSpider/res/drawable/reveal_button.png"
   inkscape:export-xdpi="5.9465446"
   inkscape:export-ydpi="5.9465446">
  <metadata
     id="metadata8">
    <rdf:RDF>
      <cc:Work
         rdf:about="">
        <dc:format>image/svg+xml</dc:format>
        <dc:type
           rdf:resource="http://purl.org/dc/dcmitype/StillImage" />
        <dc:title></dc:title>
      </cc:Work>
    </rdf:RDF>
  </metadata>
  <defs
     id="defs6">
    <inkscape:perspective
       sodipodi:type="inkscape:persp3d"
       inkscape:vp_x="0 : 0.5 : 1"
       inkscape:vp_y="0 : 1000 : 0"
       inkscape:vp_z="1 : 0.5 : 1"
       inkscape:persp3d-origin="0.5 : 0.33333333 : 1"
       id="perspective10" />
    <inkscape:perspective
       id="perspective3708"
       inkscape:persp3d-origin="0.5 : 0.33333333 : 1"
       inkscape:vp_z="1 : 0.5 : 1"
       inkscape:vp_y="0 : 1000 : 0"
       inkscape:vp_x="0 : 0.5 : 1"
       sodipodi:type="inkscape:persp3d" />
  </defs>
  <sodipodi:namedview
     pagecolor="#ffffff"
     bordercolor="#666666"
     borderopacity="1"
     objecttolerance="10"
     gridtolerance="10"
     guidetolerance="10"
     inkscape:pageopacity="0"
     inkscape:pageshadow="2"
     inkscape:window-width="1044"
     inkscape:window-height="1661"
     id="namedview4"
     showgrid="false"
     inkscape:zoom="0.65186405"
     inkscape:cx="528.89637"
     inkscape:cy="73.51224"
     inkscape:window-x="1680"
     inkscape:window-y="0"
     inkscape:window-maximized="1"
     inkscape:current-layer="g2818" />
  <g
     id="g2818"
     transform="translate(-63.745982,-78.120499)">
    <g
       id="g3714"
       transform="translate(7.5932203,4.3389808)">
      <path
         style="fill:#231616"
         d="m 235.17832,401.12312 -10.61658,-31.0294 -20.55554,-4.97642 c -11.30555,-2.73703 -19.98359,3.86073 -27.23934,5.3811 l -54.4126,21.20499 31.92786,-56.88535 8.06347,-17.8345 -9.64379,-17.3815 -9.6438,-17.38149 -32.45262,-5.87256 -54.452618,-5.87256 3.105063,-8.98532 c 1.707785,-4.94193 39.395578,-13.44064 56.861765,-18.88602 l 31.7567,-9.9007 8.59491,-37.02542 -43.87966,-53.22882 63.44916,23.17908 c 12.63601,-1.66338 33.98053,-7.06066 42.54338,-14.43842 l 15.5688,-13.4141 2.81086,-18.32488 2.81085,-38.32488 11.55908,-3.672215 11.55909,-3.672217 5.73713,47.669832 5.73712,27.66983 17.20106,8.87974 17.20105,8.87974 25.23664,-2.54626 50.18578,-24.24118 -28.00124,46.78581 -3.05211,25.09088 15.9637,17.01505 15.9637,17.01504 21.55027,0 43.55027,0 0,11.65481 0,11.65481 -54.16441,14.795 -32.16441,14.79499 0,36.30537 28.20339,65.5935 -55.23388,-35.0148 -27.0305,-5.72666 -17.70465,9.13971 -17.70466,9.13972 -5.57917,26.90804 -5.57918,46.90804 -8.70688,0 -8.70689,0 -10.61657,-51.02941 z"
         id="path3716"
         sodipodi:nodetypes="cccccccccccccccccccccccccccccccccccccccccccccccccc" />
    </g>
    <g
       id="g3597"
       style="stroke:#3eff00;stroke-opacity:1">
      <path
         transform="translate(3.0508475e-6,-3.0508475e-6)"
         d="m 207.34197,248.93036 c -5.24349,-6.33389 12.16866,-55.04914 19.99435,-57.34894 8.10775,-2.58943 17.3966,-7.64327 25.8977,-7.70462 9.207,-0.31743 22.64188,1.17286 36.57503,3.01374 5.01211,0.34367 12.08544,5.29091 16.44505,7.79238 7.76172,4.78904 11.58744,13.01512 15.56951,21.90101 2.02887,2.90374 3.50323,8.17915 4.41446,11.55362 1.11337,3.42249 1.35696,6.93007 1.12022,10.49553 -0.19006,3.42093 -0.89489,6.70065 -2.17789,9.86837 -1.84426,3.73976 -4.88581,6.44977 -8.35063,8.64615 -3.86148,2.64608 -8.36006,3.34567 -12.77327,4.46835 -6.14109,0.71168 -11.69483,3.17355 -17.58069,4.83429 -4.17353,0.87653 -8.45382,1.22304 -12.70109,1.57871 -2.24003,0.49238 -5.84542,-0.48028 -7.57347,1.46145 2.72441,-1.61013 1.29533,-0.7233 0.80405,0.75468 -0.5448,1.81263 -0.66016,3.63041 -0.37952,5.4865 0.55056,2.75926 1.07894,17.51985 1.48677,20.30423 0.43986,3.22961 0.69596,6.48125 0.72481,9.7398 -0.007,1.76434 -0.1857,3.51373 -0.38816,5.26343 0,0 -13.59738,-0.99448 -13.59738,-0.99448 l 0,0 c 0.22414,-1.20999 0.32851,-2.42328 0.37131,-3.65422 0.0977,-2.64282 -0.24368,-5.28495 -0.5256,-7.90882 -0.38266,-2.74881 -0.92063,-5.46742 -1.47324,-8.18654 -0.56037,-3.64056 -0.53212,-19.24617 0.4129,-22.83253 1.40596,-5.02876 3.73535,-8.77378 8.67923,-11.05691 3.82685,-1.38735 7.76596,-1.78822 11.81978,-1.94466 3.45895,-0.31297 6.96758,-0.56268 10.33065,-1.46961 3.18768,-1.00787 6.24779,-2.40328 9.51695,-3.14193 2.8849,-0.50537 5.76866,-1.0143 8.60222,-1.76831 1.84569,-0.42376 3.71355,-0.80146 5.469,-1.53383 0.87606,-0.37674 2.24755,-0.64044 4.33366,-2.82069 1.35689,-1.11676 0.9261,-3.85465 1.32699,-5.37598 0.38902,-4.11178 -0.62352,-8.52108 -2.6647,-12.12165 -1.77781,-2.57699 -1.07018,-6.94581 -2.68586,-9.6449 -5.70281,-8.56396 -4.73461,-6.93029 -7.5689,-10.506 -3.62378,-3.2779 -2.32781,-5.78931 -9.33524,-9.2747 -13.33743,-2.18601 -26.82678,0.32216 -40.32298,0.33209 -11.93752,0.46567 -14.707,5.79229 -21.68832,7.81041 -7.59242,1.68124 -11.89803,31.383 -8.54718,35.83468 0,0 -13.56052,8.1499 -13.56052,8.1499 z"
         id="path3593"
         style="fill:none;stroke:#3eff00;stroke-width:16.15800095;stroke-miterlimit:4;stroke-opacity:1;stroke-dasharray:none;stroke-dashoffset:0"
         sodipodi:nodetypes="cccccccccccccccccccccsccccccccccccccccccc" />
      <path
         transform="translate(3.0508475e-6,-3.0508475e-6)"
         d="m 267.14037,349.29081 c 0.53879,3.83147 0.85399,7.68934 1.08719,11.55002 0,0 -13.53801,1.43799 -13.53801,1.43799 l 0,0 c -0.17626,-3.42931 -0.47112,-6.85257 -1.02126,-10.24315 0,0 13.47208,-2.74486 13.47208,-2.74486 z"
         id="path3595"
         style="fill:none;stroke:#3eff00;stroke-width:16.15800095;stroke-miterlimit:4;stroke-opacity:1;stroke-dasharray:none;stroke-dashoffset:0"
         sodipodi:nodetypes="cccccc" />
    </g>
  </g>
</svg>
