<?xml version="1.0" encoding="UTF-8" standalone="no"?>
<!-- Created with Inkscape (http://www.inkscape.org/) -->

<svg
   xmlns:dc="http://purl.org/dc/elements/1.1/"
   xmlns:cc="http://creativecommons.org/ns#"
   xmlns:rdf="http://www.w3.org/1999/02/22-rdf-syntax-ns#"
   xmlns:svg="http://www.w3.org/2000/svg"
   xmlns="http://www.w3.org/2000/svg"
   xmlns:sodipodi="http://sodipodi.sourceforge.net/DTD/sodipodi-0.dtd"
   xmlns:inkscape="http://www.inkscape.org/namespaces/inkscape"
   id="svg2"
   version="1.1"
   inkscape:version="0.47 r22583"
   width="342.70132"
   height="337.22192"
   sodipodi:docname="reveal_button.svg"
   inkscape:export-filename="/home/askory/eclipse-workspace/MineSpider/res/drawable/reveal_button.png"
   inkscape:export-xdpi="6.7399998"
   inkscape:export-ydpi="6.7399998">
  <metadata
     id="metadata8">
    <rdf:RDF>
      <cc:Work
         rdf:about="">
        <dc:format>image/svg+xml</dc:format>
        <dc:type
           rdf:resource="http://purl.org/dc/dcmitype/StillImage" />
        <dc:title></dc:title>
      </cc:Work>
    </rdf:RDF>
  </metadata>
  <defs
     id="defs6">
    <inkscape:perspective
       sodipodi:type="inkscape:persp3d"
       inkscape:vp_x="0 : 0.5 : 1"
       inkscape:vp_y="0 : 1000 : 0"
       inkscape:vp_z="1 : 0.5 : 1"
       inkscape:persp3d-origin="0.5 : 0.33333333 : 1"
       id="perspective10" />
    <inkscape:perspective
       id="perspective3708"
       inkscape:persp3d-origin="0.5 : 0.33333333 : 1"
       inkscape:vp_z="1 : 0.5 : 1"
       inkscape:vp_y="0 : 1000 : 0"
       inkscape:vp_x="0 : 0.5 : 1"
       sodipodi:type="inkscape:persp3d" />
  </defs>
  <sodipodi:namedview
     pagecolor="#ffffff"
     bordercolor="#666666"
     borderopacity="1"
     objecttolerance="10"
     gridtolerance="10"
     guidetolerance="10"
     inkscape:pageopacity="0"
     inkscape:pageshadow="2"
     inkscape:window-width="1674"
     inkscape:window-height="1027"
     id="namedview4"
     showgrid="false"
     inkscape:zoom="1.3037281"
     inkscape:cx="124.89509"
     inkscape:cy="179.41887"
     inkscape:window-x="0"
     inkscape:window-y="2"
     inkscape:window-maximized="1"
     inkscape:current-layer="g2818"
     inkscape:snap-nodes="false" />
  <g
     id="g2818"
     transform="translate(-89.745982,-97.792716)">
    <g
       id="g3714"
       transform="translate(7.5932203,4.3389808)" />
    <path
       style="fill:#ddcb86;fill-opacity:0.94117647000000004;fill-rule:evenodd;stroke:#000000;stroke-width:12;stroke-linecap:butt;stroke-linejoin:miter;stroke-opacity:1;stroke-miterlimit:4;stroke-dasharray:none"
       d="M 171.25,0.75 C 79.0018,0.75 4.21875,75.53305 4.21875,167.78125 c 0,92.2482 74.78305,167.03125 167.03125,167.03125 92.2482,0 167,-74.78305 167,-167.03125 C 338.25,75.53305 263.4982,0.75 171.25,0.75 z m -4.125,43.21875 c 10.55309,0.06894 22.95681,0.796733 37.03125,2.65625 18.72162,9.355125 45.98108,25.017733 54.62765,43.835313 5.0229,8.97678 8.59708,24.760697 8.20454,35.056717 -0.23772,10.92915 -16.08024,18.11735 -24.92594,24.17047 -12.88426,6.01446 -27.23411,8.35141 -40.875,12.53125 -10.15432,2.69437 -20.73566,0.81506 -19.04844,16.33516 0.56693,15.83574 8.37514,28.64138 7.03969,44.49437 l -30.585,-2.11078 c 2.29196,-21.88045 -22.23544,-63.02445 1.62516,-76.85219 20.85511,-2.50212 43.56051,-2.59034 63.12781,-10.9489 18.0076,-8.38764 4.51119,-26.94122 -1.12781,-37.306879 C 214.20361,84.941 208.65486,82.781099 197.15922,75.317967 179.19565,70.963961 171.77116,67.55243 153.59375,71.954373 130.62748,85.693542 110.87578,126.66451 114.40906,146.065 l -30.553745,0.23031 C 76.793101,137.76449 110.99119,69.105931 121.53125,61.40625 125.76523,55.597954 148.06009,43.942847 167.125,43.96875 z M 188.66172,265.54 c 0.72567,5.16043 7.29091,23.40226 7.605,28.60203 l -30.5225,1.9375 c -0.2374,-4.61878 -5.23623,-28.42166 -5.97719,-32.98828 l 28.89469,2.44875 z"
       transform="translate(89.745982,97.792716)"
       id="path3592"
       sodipodi:nodetypes="cssscccccccccccccccccccccccc"
       inkscape:export-filename="/home/askory/eclipse-workspace/MineSpider/res/drawable/path3592.png"
       inkscape:export-xdpi="6.7399998"
       inkscape:export-ydpi="6.7399998" />
    <g
       id="g3597"
       style="stroke:#000000;stroke-opacity:1"
       transform="matrix(1.3468537,0,0,1.3468537,-94.904867,-98.84688)" />
  </g>
</svg>
